<svg xmlns="http://www.w3.org/2000/svg" width="107.193" height="133.992" viewBox="0 0 107.193 133.992">
  <g id="avatar" transform="translate(-8 -2)">
    <path id="Path_1146" data-name="Path 1146" d="M98.837,45.624,75,39H48.2L24.356,45.624A22.33,22.33,0,0,0,8,67.14V90.363H115.193V67.14A22.33,22.33,0,0,0,98.837,45.624Z" transform="translate(0 45.628)" fill="#5a8"/>
    <g id="Group_356" data-name="Group 356" transform="translate(25.866 84.628)">
      <path id="Path_1147" data-name="Path 1147" d="M16,56h4.466V69.4H16Z" transform="translate(-16 -18.036)" fill="#8ba"/>
      <path id="Path_1148" data-name="Path 1148" d="M46,56h4.466V69.4H46Z" transform="translate(20.996 -18.036)" fill="#8ba"/>
      <path id="Path_1149" data-name="Path 1149" d="M41.831,56.866a17.875,17.875,0,0,0,17.8-16.642L55.23,39h-26.8l-4.4,1.224A17.875,17.875,0,0,0,41.831,56.866Z" transform="translate(-6.1 -39)" fill="#8ba"/>
    </g>
    <path id="Path_1150" data-name="Path 1150" d="M52.8,32V47.632a13.4,13.4,0,0,1-26.8,0V32Z" transform="translate(22.198 36.996)" fill="#fcb98b"/>
    <path id="Path_1151" data-name="Path 1151" d="M76.484,22.922V38.555a28.659,28.659,0,1,1-57.317,0V22.922A10.422,10.422,0,0,1,29.589,12.5H66.064A10.42,10.42,0,0,1,76.484,22.922Z" transform="translate(13.771 12.949)" fill="#ffd3b3"/>
    <path id="Path_1152" data-name="Path 1152" d="M66.065,9.816H65.7A10.4,10.4,0,0,0,55.643,2H45.221A26.05,26.05,0,0,0,19.166,28.055V51.5l5.21-15.632H55.641a10.4,10.4,0,0,0,10.054-7.816h1.4a5.211,5.211,0,0,1,5.087,4.08l4.3,19.368V20.239A10.42,10.42,0,0,0,66.065,9.816Z" transform="translate(13.77 0)"/>
    <path id="Path_1153" data-name="Path 1153" d="M44.833,17.167H46.5a5.212,5.212,0,0,1,5.141,6.068l-.869,5.21A5.213,5.213,0,0,1,45.63,32.8h-.8Z" transform="translate(45.422 18.704)" fill="#ffd3b3"/>
    <path id="Path_1154" data-name="Path 1154" d="M22.966,17.167H21.3a5.212,5.212,0,0,0-5.141,6.068l.869,5.21A5.213,5.213,0,0,0,22.168,32.8h.8Z" transform="translate(9.972 18.704)" fill="#ffd3b3"/>
    <path id="Path_1155" data-name="Path 1155" d="M75.309,18.733h1.163V16.5H73.931l-8.64,17.278a100.434,100.434,0,0,1-17.47,1.7,100.378,100.378,0,0,1-17.468-1.7L21.712,16.5H19.171v2.233h1.163l7.387,14.779V47.807L21.748,34.366H19.222V36.6h1.072l7.428,16.707v1.646a4.5,4.5,0,0,0,2.76,4.143,44.343,44.343,0,0,0,17.339,3.187,44.343,44.343,0,0,0,17.339-3.187,4.5,4.5,0,0,0,2.76-4.143V53.305L75.345,36.6h1.072V34.366H73.891L67.919,47.807V33.512Z" transform="translate(13.776 17.881)" fill="#edeff1"/>
  </g>
</svg>
