<svg id="Layer_2" data-name="Layer 2" xmlns="http://www.w3.org/2000/svg" width="196.561" height="105.587" viewBox="0 0 196.561 105.587">
  <g id="Layer_1" data-name="Layer 1">
    <rect id="Rectangle_230" data-name="Rectangle 230" width="6.461" height="2.464" rx="1.232" transform="translate(86.796)" fill="#5a8"/>
    <rect id="Rectangle_231" data-name="Rectangle 231" width="27.213" height="2.464" rx="1.232" transform="translate(68.143 9.399)" fill="#5a8"/>
    <rect id="Rectangle_232" data-name="Rectangle 232" width="23.023" height="2.464" rx="1.232" transform="translate(84.534 4.714)" fill="#5a8"/>
    <rect id="Rectangle_233" data-name="Rectangle 233" width="8.56" height="2.464" rx="1.232" transform="translate(66.306 14.026)" fill="#5a8"/>
    <rect id="Rectangle_234" data-name="Rectangle 234" width="5.61" height="2.464" rx="1.232" transform="translate(76.755 14.026)" fill="#5a8"/>
    <rect id="Rectangle_235" data-name="Rectangle 235" width="28.121" height="2.464" rx="1.232" transform="translate(84.416 14.026)" fill="#5a8"/>
    <rect id="Rectangle_236" data-name="Rectangle 236" width="31.119" height="2.464" rx="1.232" transform="translate(84.416 18.701)" fill="#5a8"/>
    <rect id="Rectangle_237" data-name="Rectangle 237" width="3.451" height="2.464" rx="1.232" transform="translate(116.91 18.701)" fill="#5a8"/>
    <rect id="Rectangle_238" data-name="Rectangle 238" width="15.923" height="2.464" rx="1.232" transform="translate(66.394 18.701)" fill="#5a8"/>
    <rect id="Rectangle_239" data-name="Rectangle 239" width="54.003" height="2.464" rx="1.232" transform="translate(66.702 23.412)" fill="#5a8"/>
    <rect id="Rectangle_240" data-name="Rectangle 240" width="12.228" height="2.464" rx="1.232" transform="translate(65.905 28.087)" fill="#5a8"/>
    <rect id="Rectangle_241" data-name="Rectangle 241" width="17.95" height="2.464" rx="1.232" transform="translate(64.264 32.814)" fill="#5a8"/>
    <rect id="Rectangle_242" data-name="Rectangle 242" width="38.855" height="2.464" rx="1.232" transform="translate(41.238 56.292)" fill="#5a8"/>
    <rect id="Rectangle_243" data-name="Rectangle 243" width="43.932" height="2.464" rx="1.232" transform="translate(83.234 56.292)" fill="#5a8"/>
    <rect id="Rectangle_244" data-name="Rectangle 244" width="24.754" height="2.464" rx="1.232" transform="translate(41.238 60.968)" fill="#5a8"/>
    <rect id="Rectangle_245" data-name="Rectangle 245" width="86.096" height="2.464" rx="1.232" transform="translate(52.83 65.643)" fill="#5a8"/>
    <rect id="Rectangle_246" data-name="Rectangle 246" width="65.127" height="2.464" rx="1.232" transform="translate(68.976 60.968)" fill="#5a8"/>
    <rect id="Rectangle_247" data-name="Rectangle 247" width="27.611" height="2.464" rx="1.232" transform="translate(88.129 32.814)" fill="#5a8"/>
    <rect id="Rectangle_248" data-name="Rectangle 248" width="37.64" height="2.464" rx="1.232" transform="translate(60.268 37.453)" fill="#5a8"/>
    <rect id="Rectangle_249" data-name="Rectangle 249" width="66.044" height="2.464" rx="1.232" transform="translate(50.212 42.128)" fill="#5a8"/>
    <rect id="Rectangle_250" data-name="Rectangle 250" width="35.1" height="2.464" rx="1.232" transform="translate(42.484 46.839)" fill="#5a8"/>
    <rect id="Rectangle_251" data-name="Rectangle 251" width="38.322" height="2.464" rx="1.232" transform="translate(80.356 46.839)" fill="#5a8"/>
    <rect id="Rectangle_252" data-name="Rectangle 252" width="14.768" height="2.464" rx="1.232" transform="translate(99.98 37.453)" fill="#5a8"/>
    <rect id="Rectangle_253" data-name="Rectangle 253" width="2.507" height="2.464" rx="1.232" transform="translate(83.831 32.814)" fill="#5a8"/>
    <rect id="Rectangle_254" data-name="Rectangle 254" width="3.601" height="2.464" rx="1.232" transform="translate(71.986 51.614)" fill="#5a8"/>
    <rect id="Rectangle_255" data-name="Rectangle 255" width="10.171" height="2.464" rx="1.232" transform="translate(38.883 51.614)" fill="#5a8"/>
    <rect id="Rectangle_256" data-name="Rectangle 256" width="7.969" height="2.464" rx="1.232" transform="translate(64.828 70.243)" fill="#5a8"/>
    <rect id="Rectangle_257" data-name="Rectangle 257" width="15.498" height="2.464" rx="1.232" transform="translate(85.227 84.344)" fill="#5a8"/>
    <rect id="Rectangle_258" data-name="Rectangle 258" width="15.555" height="2.464" rx="1.232" transform="translate(91.185 89.094)" fill="#5a8"/>
    <rect id="Rectangle_259" data-name="Rectangle 259" width="24.504" height="2.464" rx="1.232" transform="translate(109.258 89.094)" fill="#5a8"/>
    <rect id="Rectangle_260" data-name="Rectangle 260" width="6.213" height="2.464" rx="1.232" transform="translate(140.328 89.094)" fill="#5a8"/>
    <rect id="Rectangle_261" data-name="Rectangle 261" width="40.894" height="2.464" rx="1.232" transform="translate(102.833 84.344)" fill="#5a8"/>
    <rect id="Rectangle_262" data-name="Rectangle 262" width="34.253" height="2.464" rx="1.232" transform="translate(96.756 93.694)" fill="#5a8"/>
    <rect id="Rectangle_263" data-name="Rectangle 263" width="9.48" height="2.464" rx="1.232" transform="translate(103.292 98.421)" fill="#5a8"/>
    <rect id="Rectangle_264" data-name="Rectangle 264" width="14.336" height="2.464" rx="1.232" transform="translate(114.12 98.421)" fill="#5a8"/>
    <rect id="Rectangle_265" data-name="Rectangle 265" width="15.021" height="2.464" rx="1.232" transform="translate(109.87 103.123)" fill="#5a8"/>
    <rect id="Rectangle_266" data-name="Rectangle 266" width="19.467" height="2.464" rx="1.232" transform="translate(74.845 70.243)" fill="#5a8"/>
    <rect id="Rectangle_267" data-name="Rectangle 267" width="13.543" height="2.464" rx="1.232" transform="translate(96.756 70.243)" fill="#5a8"/>
    <rect id="Rectangle_268" data-name="Rectangle 268" width="45.012" height="2.464" rx="1.232" transform="translate(78.797 79.693)" fill="#5a8"/>
    <rect id="Rectangle_269" data-name="Rectangle 269" width="26.802" height="2.464" rx="1.232" transform="translate(112.54 70.243)" fill="#5a8"/>
    <rect id="Rectangle_270" data-name="Rectangle 270" width="17.175" height="2.464" rx="1.232" transform="translate(51.801 51.614)" fill="#5a8"/>
    <rect id="Rectangle_271" data-name="Rectangle 271" width="44.921" height="2.464" rx="1.232" transform="translate(72.116 75.029)" fill="#5a8"/>
    <rect id="Rectangle_272" data-name="Rectangle 272" width="18.01" height="2.464" rx="1.232" transform="translate(121.483 75.029)" fill="#5a8"/>
    <rect id="Rectangle_273" data-name="Rectangle 273" width="43.5" height="2.464" rx="1.232" transform="translate(78.133 51.614)" fill="#5a8"/>
    <rect id="Rectangle_274" data-name="Rectangle 274" width="30.615" height="2.464" rx="1.232" transform="translate(88.681 28.087)" fill="#5a8"/>
    <rect id="Rectangle_275" data-name="Rectangle 275" width="6.856" height="2.464" rx="1.232" transform="translate(80.091 28.087)" fill="#5a8"/>
    <rect id="Rectangle_276" data-name="Rectangle 276" width="5.755" height="2.464" rx="1.232" transform="translate(76.58 4.714)" fill="#5a8"/>
    <path id="Path_805" data-name="Path 805" d="M25.3,155.989,0,139.858v-3.9L25.3,119.83v5.659L5.348,137.909,25.3,150.345Z" transform="translate(0 -83.686)" fill="#5a8"/>
    <path id="Path_806" data-name="Path 806" d="M512.059,85.55l-15.718,48.863H492.55L508.2,85.55Z" transform="translate(-343.984 -59.746)" fill="#5a8"/>
    <path id="Path_807" data-name="Path 807" d="M567.8,150.345l19.947-12.421L567.8,125.488V119.83l25.3,16.131v3.9l-25.3,16.131Z" transform="translate(-396.537 -83.686)" fill="#5a8"/>
  </g>
</svg>
