<svg xmlns="http://www.w3.org/2000/svg" width="90" height="101.454" viewBox="0 0 90 101.454">
  <g id="clove-garlic" transform="translate(-3.374 0)">
    <path id="Path_1156" data-name="Path 1156" d="M48.076,91.346l-5.407-1.1h3.418c.195,0,.389-.017.584-.036.082-.008.164-.02.24-.02a12.575,12.575,0,0,0,1.735.121h0c6.88,0,13.6-5.635,17.115-14.356,4.1-10.155,3.886-25.546-8.949-38.244-8.941-9.426-10.881-16.536-14.747-30.7L40.509,1.344A1.81,1.81,0,0,0,37.979.18L34.087,2.061l.265,1.3c.065.321,6.405,32.395-6.642,50.553-5.956,8.288-7.075,17.6-3.073,25.549A19.791,19.791,0,0,0,35.628,89.4L25.279,91.151a1.7,1.7,0,0,0,.274,3.371,1.557,1.557,0,0,0,.279-.024l5.714-.966-2.739,2.775a1.709,1.709,0,0,0,0,2.4,1.668,1.668,0,0,0,2.374,0l3.791-3.841v4.892a1.678,1.678,0,1,0,3.356,0V94.865l3.791,3.841a1.668,1.668,0,0,0,2.374,0,1.709,1.709,0,0,0,0-2.4l-2.745-2.782,5.667,1.149a1.7,1.7,0,0,0,.658-3.329Z" transform="translate(13.839)" fill="#fff"/>
    <path id="Path_1157" data-name="Path 1157" d="M51.963,23.67c-1.671-1.235-3.247-2.351-4.739-3.407-2.826-2-5.269-3.74-7.484-5.645A43.169,43.169,0,0,0,47.4,25.049C61.354,38.7,61.537,55.4,57.029,66.449A28.692,28.692,0,0,1,47.29,79.2h.032a17.687,17.687,0,0,0,13.517-5.638c6.1-6.573,6.724-16.623,6.779-18.274h.005A35.1,35.1,0,0,0,51.963,23.67Z" transform="translate(25.682 11.065)" fill="#fff"/>
    <path id="Path_1158" data-name="Path 1158" d="M36.387,82.3a23.979,23.979,0,0,1-7.1-8.422c-4.6-9.021-3.376-19.5,3.348-28.754,7.415-10.2,8.045-25.534,7.407-35.965-3.512,8.181-5.33,12.329-13.25,18.185A35.129,35.129,0,0,0,11.085,59h.005c.054,1.658.668,11.679,6.769,18.263a17.688,17.688,0,0,0,13.53,5.65l.391,0A20.623,20.623,0,0,0,36.387,82.3Z" transform="translate(5.182 7.362)" fill="#fff"/>
    <path id="Path_1159" data-name="Path 1159" d="M13.2,57.748h-.074l-.112-1.7c-.045-.525-.07-.957-.086-1.275l-.01-.164A38.428,38.428,0,0,1,30.066,19.976a37.71,37.71,0,0,0,4.707-4.034l-1.178.6A76.988,76.988,0,0,0,22.9,22.738c-12.5,8.622-20.14,21.013-19.491,31.59-.025,1.344.057,10.384,6.221,17.024,3.6,3.878,8.53,6.127,14.651,6.751a21.252,21.252,0,0,1-3.705-3.167C15.485,69.439,13.775,62.078,13.2,57.748Z" transform="translate(0 11.963)" fill="#fff"/>
  </g>
</svg>
