<svg xmlns="http://www.w3.org/2000/svg" width="105.05" height="105.065" viewBox="0 0 105.05 105.065">
  <path id="Subtraction_3" data-name="Subtraction 3" d="M58.866,105.065h0l-19.524,0H22.572a11.333,11.333,0,0,1-11.32-11.319V62.2H9.544a2.973,2.973,0,0,1-.3-.014A9.667,9.667,0,0,1,2.809,45.712l.022-.022.022-.022L45.687,2.833a9.671,9.671,0,0,1,13.679,0L102.223,45.69l.007.007A9.672,9.672,0,0,1,95.386,62.2H93.8v31.54a11.333,11.333,0,0,1-11.32,11.319H74.815l.369-.462,1.012-1.518.52-1.083.5-1.2.433-.938.091-.171.251-.318.556-.325.8-.307,1.36-.134.956-.007.215.013.6.153,1.666.752.028-.229.67-.256.51.018,1.578.675.739.147.683-.192-.5-.332-.326-.271L87.26,98.5l-.082-.4.1-.229-.14-.336-.383-.445-.386-.244-.391-.044-.324-.271-.259-.5-.6-.329-.38-.064L84.4,94.1l-.011-1.348-.01-1.341-1.291-.054-1.163-.049V88.087l.552-1.629.563-1.569-.855-1.155L81.277,82.5l-.589-.512-.695-1.544-.347-.683-.308-.26-.33-.151-1.214.061-1.132-.833L75.33,77.6l-1.624-1.2-1.429-.782-.584-.172-1.374-.061-.147-.149-.093-.43,0-.479.447-.722.035-.454L69.63,71.62l-.288-.448-.8-.18.159-.443v-.3l-.113-.233-.184-.112L68.17,69.9l-.626.182-.479-.692-1.486-1.975-.476-.24-.088-.136.364-.606.611-.9.105-.522-.118-.574-.662-1.084.161-.46.284-.528.022-.4.445.058.569.006.177-.324-.01-1.134.133-.414,1.8-1.922.9-.432.681-.4.156-.579-.14-.3-.133-.436-.042-.314-.751-.865L69.3,54.48l-.031-.4.177-.7.314-.547,1.064-.321.6-.275.081-.245-.785-.4-1.676-.125-1.223.114-.392-.125-.581-.773-.618-.411L65.657,50l-.563.049-.342-.105-.08-.332-.814-2.547L63.6,46.72l-.38-.086-.318-.016-.212-.175-.228-.353-.164-.461-.012-.607.034-.52-.11-.336-.28-.334-.4-.24-.348-.283-.611-2.252-.245-.607,0-.064-.254-.194-.456-.071-.47-.021-.3.152-.518.407-.7.444-.566.407-.324.278-.267-.044-.21-.244-.117-.34.05-1.286-.122-.4-.264-.283-.31-.162-.369-.09-.382-.01-.543.378-.768.391-1.191-.031-.8-.073-.387-.075-1.55-.6L49.2,38.9l-.578-.242-.687-.193-1.155.364-.5-.087-.7-.316-.247.085-.784.962-1.33,1.03-.718.171v.116l-.067.293-.835.847-1.137,1.15-.815.724-1.375,1.22-1.025.261-1.73.438-.464.426-.432.687-.253.939-.075.587-.046,1.1.4,1.134.389,1.087.049.718-.039.708-.376.754-.408,1.034-.237,1.168L33.9,58.244l0,1.855-.033.3-.709,1.306-.83,1.525-.385.353-1.821.454-1.985,1.115L25.918,66.4,23.9,67.527l-2.117,1.184-2.194,1.225-1.569.875-2.1,1.169.53,1.822.517,1.776.537,1.836.522,1.78-.564.169.443,1.363.731-.209.8-.162.336.875-1.092.974,1.654.266,2.486.4,2.4.387,2.531.456.813.371,2.442,1.366,1.587.886,1.853,1.033,2.317,1.291,1.59.886,2.036,1.132,1.588,1.292,2.01,1.635L46.194,95.4l1.819,1.392,2.5,1.913,2.467,1.883,2.415,1.84,1.936,1.472,1.53,1.163Z" transform="translate(-0.002 0)" fill="#5a8"/>
</svg>
