<svg xmlns="http://www.w3.org/2000/svg" width="105.052" height="105.063" viewBox="0 0 105.052 105.063">
  <g id="Group_381" data-name="Group 381" transform="translate(810.552 2194.531)">
    <path id="home" d="M102.23,45.7l-.007-.007L59.365,2.834a9.67,9.67,0,0,0-13.679,0L2.852,45.667l-.043.044A9.668,9.668,0,0,0,9.245,62.19q.148.014.3.014h1.708V93.743a11.332,11.332,0,0,0,11.321,11.319H82.481A11.332,11.332,0,0,0,93.8,93.743V62.2h1.584A9.673,9.673,0,0,0,102.23,45.7Zm0,0" transform="translate(-810.552 -2194.531)" fill="#5a8"/>
    <path id="Path_1275" data-name="Path 1275" d="M621.507,147.063l0,.063.245.607.611,2.252.348.284.4.24.28.334.109.335-.034.521.012.606.164.462.227.352.212.176.318.016.38.086.256.349.814,2.547.08.332.342.106.564-.049.577.264.618.412.581.773.392.125,1.223-.114,1.676.125.785.4-.081.245-.6.276-1.064.322-.314.547-.177.705.032.4.261.436.752.865.042.313.133.436.14.3-.155.578-.682.4-.9.432-1.8,1.921-.134.414.011,1.134-.178.324-.568-.006-.445-.059-.023.4-.284.529-.161.459.661,1.084.118.574-.1.523-.612.9-.363.606.088.135.476.24,1.486,1.975.478.692.627-.181.235.012.184.112.114.233v.3l-.159.443.8.18.288.448.934,1.532-.035.454-.447.722,0,.479.093.43.146.15,1.374.061.584.172,1.429.782,1.624,1.2,1.331.979,1.132.833,1.214-.061.331.151.308.26.347.683.7,1.544.59.512.912,1.234.856,1.155-.564,1.569-.551,1.629v3.223l1.162.048,1.292.054.01,1.342.011,1.348.011,1.537.379.064.6.328.258.5.324.271.391.044.387.244.382.444.139.336-.1.229.082.4.267.578.326.271.5.333-.684.191-.738-.146-1.578-.675-.511-.018-.669.256-.028.229-1.666-.753-.6-.152-.215-.014-.955.007-1.36.135-.8.306-.556.325-.251.318-.091.171-.433.938-.5,1.2-.52,1.083-1.012,1.518-.56.7-1.2,1.3-1.3.26-3.014-.256L626.946,213l-3.325-.283-2.474-.211-.19-.07-2.446-1.859-1.935-1.472-2.415-1.84-2.467-1.883-2.5-1.914-1.819-1.392-2.208-1.793-2.01-1.635-1.587-1.293-2.036-1.133-1.591-.886-2.317-1.291-1.853-1.033-1.586-.886-2.442-1.365-.812-.371-2.531-.456-2.4-.387-2.486-.4-1.655-.267,1.092-.973-.336-.875-.8.161-.731.208-.443-1.363.565-.168-.522-1.78-.538-1.836-.518-1.776-.53-1.822,2.1-1.169,1.568-.875,2.195-1.225,2.116-1.183,2.016-1.129,2.22-1.245,1.986-1.115,1.82-.453.385-.353.83-1.525.709-1.306.034-.3,0-1.855.125-2.183.237-1.168.407-1.034.376-.755.039-.708-.05-.718-.389-1.087-.4-1.134.045-1.1.075-.587.253-.938.431-.687.464-.426,1.73-.439,1.025-.261,1.375-1.22.815-.724,1.136-1.15.836-.847.067-.294v-.116l.718-.172,1.331-1.029.783-.962.248-.085.7.316.5.087,1.155-.364.687.192.578.242.323.016,1.549.6.387.074.8.073,1.191.032.768-.391.542-.378.381.009.369.091.31.161.264.283.123.4-.05,1.286.117.34.209.243.268.045.324-.279.566-.407.7-.444.519-.407.3-.152.47.021.457.071Z" transform="translate(-1371.729 -2311.209)" fill="#fff"/>
  </g>
</svg>
