<svg xmlns="http://www.w3.org/2000/svg" width="49.243" height="46.529" viewBox="0 0 49.243 46.529">
  <path id="Path_965" data-name="Path 965" d="M607.291,146.436v.043l.166.412.415,1.531.237.193.27.163.19.227.074.228-.023.354.008.412.111.314.155.24.144.119.216.011.258.059.174.237.553,1.732.054.225.232.072.383-.033.392.18.42.28.4.525.267.085.832-.078,1.139.085.534.271-.055.167-.411.187-.723.219-.214.372-.121.479.022.27.178.3.511.588.028.213.091.3.1.2-.105.393-.463.27-.609.294-1.223,1.306-.091.282.007.771-.121.22-.386,0-.3-.04-.015.27-.193.359-.11.312.45.737.08.39-.071.355-.416.611-.247.412.06.092.324.163,1.01,1.342.325.471.426-.123.159.008.125.076.077.158v.2l-.108.3.543.123.2.3.635,1.042-.024.309-.3.491v.326l.063.292.1.1.934.041.4.117.972.532,1.1.813.9.665.77.566.825-.041.225.1.209.177.236.465.472,1.05.4.348.62.839.582.785-.383,1.066-.375,1.107v2.191l.79.033.878.036.007.912.007.917.007,1.045.258.044.41.223.176.338.22.184.266.03.263.166.26.3.094.229-.069.155.056.274.181.393.221.184.342.226-.465.13-.5-.1-1.073-.459-.347-.013-.455.174-.019.156-1.133-.512-.409-.1-.146-.009-.65,0-.925.092-.545.208-.378.221-.171.216-.062.116-.294.637-.341.817-.353.736-.688,1.032-.381.476-.818.886-.882.176-2.049-.174-2.271-.193-2.26-.193-1.682-.144-.129-.047-1.663-1.264-1.316-1-1.642-1.251-1.677-1.28-1.7-1.3-1.237-.946-1.5-1.219-1.366-1.112-1.079-.879-1.384-.77-1.081-.6-1.575-.878-1.26-.7-1.079-.6-1.66-.928-.552-.252-1.721-.31-1.631-.263-1.69-.273-1.125-.182.742-.662-.228-.595-.541.11-.5.142-.3-.927.384-.115-.355-1.21-.366-1.249-.352-1.207-.36-1.238,1.427-.795,1.066-.595,1.492-.833,1.439-.8,1.37-.767,1.509-.846,1.35-.758,1.238-.308.262-.24.564-1.037.482-.888.023-.206,0-1.261.085-1.484.161-.794.277-.7.256-.513.026-.481-.034-.488-.264-.739-.275-.771.031-.745.051-.4.172-.638.293-.467.315-.29,1.176-.3.7-.177.934-.829.554-.492.773-.782.568-.576.045-.2v-.079l.488-.117.9-.7.532-.654.169-.058.476.215.34.059.785-.248.467.131.393.165.22.011,1.054.407.263.05.543.05.81.022.522-.266.369-.257.259.006.251.062.211.11.179.192.084.274-.034.875.08.231.142.165.182.031.22-.189.385-.277.474-.3.353-.277.2-.1.319.014.31.048Z" transform="translate(-577.102 -145.104)" fill="#fff"/>
</svg>
