<svg xmlns="http://www.w3.org/2000/svg" width="90" height="89.223" viewBox="0 0 90 89.223">
  <g id="Group_343" data-name="Group 343" transform="translate(-140.8 -154.96)">
    <path id="Path_878" data-name="Path 878" d="M-1.32-14.385a11.23,11.23,0,0,0,.96-4.532,11.9,11.9,0,0,0-1.86-6.54,75.6,75.6,0,0,0-8.22-9.518q-1.8-1.813-3-2.978-8.76-9.324-8.76-20.46a20.911,20.911,0,0,1,6.6-15.928q6-5.7,15.24-5.7,9.96,0,18.12,7.511v14.763q-8.4-8.158-16.32-8.158a8.973,8.973,0,0,0-6.54,2.4,8.706,8.706,0,0,0-2.46,6.54q0,4.662,4.32,9.583.84.906,3.96,4.144Q7.56-36.4,10.26-31.026a25.734,25.734,0,0,1,2.7,11.719,15.958,15.958,0,0,1-.84,4.921ZM6.84,9.183A8.39,8.39,0,0,1,.3,6.464,10.4,10.4,0,0,1-2.16-.788,8.694,8.694,0,0,1,.36-7.2,8.762,8.762,0,0,1,6.84-9.723,8.159,8.159,0,0,1,13.2-7.069,9.935,9.935,0,0,1,15.6-.141a9.513,9.513,0,0,1-2.4,6.734A8.259,8.259,0,0,1,6.84,9.183Z" transform="translate(163 235)" fill="#fff"/>
    <path id="Path_877" data-name="Path 877" d="M20.88,23.568a11.23,11.23,0,0,1,.96,4.532,11.9,11.9,0,0,1-1.86,6.54,75.6,75.6,0,0,1-8.22,9.518q-1.8,1.813-3,2.978Q0,56.46,0,67.6A20.911,20.911,0,0,0,6.6,83.525q6,5.7,15.24,5.7,9.96,0,18.12-7.511V66.95q-8.4,8.158-16.32,8.158a8.973,8.973,0,0,1-6.54-2.4,8.706,8.706,0,0,1-2.46-6.54q0-4.662,4.32-9.583.84-.906,3.96-4.144,6.84-6.863,9.54-12.237a25.734,25.734,0,0,0,2.7-11.719,15.957,15.957,0,0,0-.84-4.921ZM29.04,0A8.39,8.39,0,0,0,22.5,2.719a10.4,10.4,0,0,0-2.46,7.252,8.694,8.694,0,0,0,2.52,6.41,8.762,8.762,0,0,0,6.48,2.525,8.159,8.159,0,0,0,6.36-2.655,9.935,9.935,0,0,0,2.4-6.928A9.513,9.513,0,0,0,35.4,2.59,8.259,8.259,0,0,0,29.04,0Z" transform="translate(230.8 244.183) rotate(180)" fill="#fff"/>
  </g>
</svg>
