<svg xmlns="http://www.w3.org/2000/svg" width="131.964" height="203.324" viewBox="0 0 131.964 203.324">
  <g id="Group_342" data-name="Group 342" transform="translate(0 -0.002)">
    <path id="Path_843" data-name="Path 843" d="M292.935,92.087l-2-.007-7.678-.023-1.705,0-5.172-.013-1.278-.007h-.567l-26.67-.073-.424,0h-.4l-1.621-.006-4.578-.01-2.209-.006-4.585-.013v-66.4L290.6,20.526l2-.177Z" transform="translate(-161.638 -14.053)" opacity="0.2"/>
    <path id="Path_844" data-name="Path 844" d="M673.182,213.467v.007l-5.606-.017-2.072-.007-1.7,0-2.449-.007-.978,0-1.742,0-.9,0h-.377l-.557,0h-.01l-4.208-.01-.761,0-10.787-.03-1.939-.007-7.911-.023-1.064,0h-.427a.011.011,0,0,0,0-.007h-.4l-1.622-.007-4.578-.01v0l-2.209-.007-1.518,0h-.34l-4.728-.013v-66.4l58.558-5.172v.177Z" transform="translate(-543.887 -135.439)" fill="#e6e6e6"/>
    <circle id="Ellipse_17" data-name="Ellipse 17" cx="2.336" cy="2.336" r="2.336" transform="translate(97.43 0.458)" opacity="0.2"/>
    <circle id="Ellipse_18" data-name="Ellipse 18" cx="2.336" cy="2.336" r="2.336" transform="translate(96.095 0.458)" fill="#3f3d56"/>
    <rect id="Rectangle_331" data-name="Rectangle 331" width="36.703" height="2.669" transform="translate(81.365 2.925) rotate(-4.568)" opacity="0.2"/>
    <rect id="Rectangle_332" data-name="Rectangle 332" width="36.703" height="2.669" transform="translate(80.03 2.925) rotate(-4.568)" fill="#e6e6e6"/>
    <path id="Path_845" data-name="Path 845" d="M680.719,295.358c-1.962-7.434-3.006-8.008-3.006-8.008l-11.064-5.569-.073-.027-6.219,4.588-2.679-4.124-.133-.117-.167.067a61.224,61.224,0,0,0-9.583,4.865l-.113-.017-4.334,2.155-.777,2.873-.9,3.313-3.09,14.354v0l2.209.007v0l4.578.01.721-3.537.9,3.543h.4a.01.01,0,0,1,0,.007h.427l1.064,0,7.911.023,1.939.007,10.787.03.761,0,4.207.01h.01l.557,0v-.01l.287-3.126.173-.874.818,4.007,0,.007,1.742,0,.978,0,2.449.007,1.705,0v-.007C682.738,306.656,681.44,298.094,680.719,295.358Z" transform="translate(-560.663 -232.141)" fill="#5a8" opacity="0.56"/>
    <path id="Path_846" data-name="Path 846" d="M709.495,240.821l0,.015s-.006,0,0-.015c-.044-.152-.6-1.951-2.2-1.026-1.67.966-3.665-5.1-3.665-5.1s-5.025,1.383-8.093,1.171a1.9,1.9,0,0,1-.6-.145,7.829,7.829,0,0,0,1.474,8.9l-.542,4.828,2.784,4.331,6.187-4.641s.078,1.181.332-2.864a7.835,7.835,0,0,0,4.551-5.977C709.592,240.584,709.5,240.77,709.495,240.821Z" transform="translate(-599.042 -199.641)" fill="#ffb8b8" opacity="0.56"/>
    <path id="Path_847" data-name="Path 847" d="M708.866,228.921c.683-1.555,2.516-6.132-.7-8.889-2.662-2.282-12.051-4.318-15.052,1.74a1.884,1.884,0,0,0,.966,2.573c.043-.09.092-.176.139-.263a1.858,1.858,0,0,0,.466.1c3.068.212,8.093-1.171,8.093-1.171s2,6.066,3.664,5.1c1.6-.926,2.159.873,2.2,1.026.01-.052.1-.237.223-.523a7.919,7.919,0,0,0,.082-1.045c0,.061,0,.123,0,.184a7.888,7.888,0,0,1-.087,1.171Z" transform="translate(-598.19 -187.953)" fill="#2f2e41" opacity="0.56"/>
    <ellipse id="Ellipse_19" data-name="Ellipse 19" cx="51.384" cy="8.008" rx="51.384" ry="8.008" transform="translate(0 187.309)" fill="#e6e6e6"/>
    <path id="Path_848" data-name="Path 848" d="M250.554,419.257,239.377,432.2l-.207.24-65.525-10.01V347.686h76.743Z" transform="translate(-119.925 -240.122)" fill="#3f3d56"/>
    <rect id="Rectangle_333" data-name="Rectangle 333" width="0.667" height="13.384" transform="matrix(0.075, -0.997, 0.997, 0.075, 60.201, 136.424)" fill="#e6e6e6"/>
    <rect id="Rectangle_334" data-name="Rectangle 334" width="0.667" height="14.05" transform="translate(92.902 139.428) rotate(-85.914)" fill="#e6e6e6"/>
    <path id="Path_849" data-name="Path 849" d="M238.812,406.158l-65.732-4-.041.666,30.051,1.831.511,60.088.667-.006-.51-60.041,35.013,2.133Z" transform="translate(-119.507 -277.74)" fill="#e6e6e6"/>
    <path id="Path_850" data-name="Path 850" d="M397.295,419.257,386.117,432.2V347.686h11.011Z" transform="translate(-266.665 -240.122)" opacity="0.2"/>
    <path id="Path_851" data-name="Path 851" d="M561.516,453.815H555.51v-4l16.016-3,1-2,62.729,1.668v5.672l-12.512,4.567-8.175-.23s-12.345,10.343-27.027,9.343S561.516,453.815,561.516,453.815Z" transform="translate(-503.292 -344.75)" fill="#e6e6e6"/>
    <path id="Path_852" data-name="Path 852" d="M650.707,458.732l-3.5,2.5L637.39,461s0,0,0,0h-.017l-.747-.017h0l-.621-.017-1.959-.047-.164,0-1.732-.04-.063,0-2.152-.05-.14,0-1.592-.04-.257,0-1.868-.047-.6-.013-3.36-.08-.848-.02-8.929-.214s-6.363.317-6.663-1.532a.892.892,0,0,1-.01-.137c0-1.051,1.108-1.275,2.155-1.248a9.733,9.733,0,0,1,1.849.247l2.563.063,1.6.037,5.015.123,4.288.1,1.518.04,2.172.053.861.02,3.2.077,1.495.037,3.157.077Z" transform="translate(-537.928 -353.504)" fill="#ccc"/>
    <circle id="Ellipse_20" data-name="Ellipse 20" cx="0.667" cy="0.667" r="0.667" transform="translate(93.426 105.562)" fill="#3f3d56"/>
    <ellipse id="Ellipse_21" data-name="Ellipse 21" cx="6.34" cy="0.667" rx="6.34" ry="0.667" transform="translate(88.087 103.226)" fill="#ccc"/>
    <path id="Path_853" data-name="Path 853" d="M2.475,0H8.169V2.669H0V2.475A2.475,2.475,0,0,1,2.475,0Z" transform="matrix(0.972, 0.237, -0.237, 0.972, 88.056, 94.826)" fill="#3f3d56"/>
    <path id="Path_854" data-name="Path 854" d="M0,0H3V.1A1.237,1.237,0,0,1,1.766,1.335H1.237A1.237,1.237,0,0,1,0,.1V0Z" transform="translate(88.37 97.506) rotate(8.546)" fill="#3f3d56"/>
    <path id="Path_855" data-name="Path 855" d="M677.241,435.995l-4.149-1.011a1.33,1.33,0,0,1-1.389.73l-.33-.05a1.33,1.33,0,0,1-1.129-1.374l-.706-.172a2.658,2.658,0,0,0-.234.61l.94.229a1.33,1.33,0,0,0,1.129,1.374l.33.05a1.33,1.33,0,0,0,1.389-.73l4.149,1.011.632-2.593-.154-.037Z" transform="translate(-581.882 -337.308)" opacity="0.2"/>
    <path id="Path_856" data-name="Path 856" d="M687.258,436.686h0a2.437,2.437,0,0,1-2.433-2.565l.365-6.945,4.5-.167v7.24a2.437,2.437,0,0,1-2.436,2.437Z" transform="translate(-592.598 -332.459)" fill="#3f3d56"/>
    <path id="Path_857" data-name="Path 857" d="M688.584,418.611h-4.057c.7-1.067.265-2.161-.72-3.267a.444.444,0,0,1,.333-.737h1.546a3.14,3.14,0,0,1,2.9,3.337Z" transform="translate(-591.822 -323.893)" fill="#3f3d56"/>
    <path id="Path_858" data-name="Path 858" d="M685.142,415.343a.444.444,0,0,1,.333-.737H684.14a.444.444,0,0,0-.333.737c.985,1.106,1.423,2.2.72,3.267h1.335C686.565,417.543,686.127,416.449,685.142,415.343Z" transform="translate(-591.821 -323.893)" opacity="0.2"/>
    <path id="Path_859" data-name="Path 859" d="M623.406,440.262l5.131,1.814s12.206.974,10.623,4.079-12.031,1.1-12.031,1.1l-4.948-3.435Z" transform="translate(-549.338 -341.611)" fill="#ffb8b8"/>
    <path id="Path_860" data-name="Path 860" d="M642.767,452.044a1.331,1.331,0,0,0-1.328,1.266,1,1,0,0,0-.251-.168,1.339,1.339,0,1,0-1.114.182,1,1,0,1,0,1.673.906,1.332,1.332,0,1,0,1.02-2.186Z" transform="translate(-561.02 -348.818)" fill="#fff"/>
    <path id="Path_861" data-name="Path 861" d="M650.317,454.2a1.331,1.331,0,0,0-1.328,1.266.993.993,0,0,0-.251-.168,1.339,1.339,0,1,0-1.114.182,1,1,0,1,0,1.673.906,1.332,1.332,0,1,0,1.02-2.186Z" transform="translate(-566.234 -350.307)" fill="#fff"/>
    <path id="Path_862" data-name="Path 862" d="M550.548,352.051l-4.645,7.671-9.766-6.556-11.218-7.528-6.763-17.758-6.877-12.593,8.619-2.539s2.966.113,6.8,7.15,7.244,19.226,7.244,19.226l4.581,3.567Z" transform="translate(-472.744 -253.547)" fill="#5a8"/>
    <path id="Path_863" data-name="Path 863" d="M550.548,352.051l-4.645,7.671-9.766-6.556-11.218-7.528-6.763-17.758-6.877-12.593,8.619-2.539s2.966.113,6.8,7.15,7.244,19.226,7.244,19.226l4.581,3.567Z" transform="translate(-472.744 -253.547)" opacity="0.2"/>
    <path id="Path_864" data-name="Path 864" d="M674.555,453.174l-11.9-.284-.944-1.071-.667-.758-.731-.827-.811-.918,1.381-2.142.657-1.021L664.2,447.9l1.888,1.238s1.582.527,3.463,1.321A23.026,23.026,0,0,1,674.555,453.174Z" transform="translate(-575.113 -345.68)" fill="#ffb8b8"/>
    <circle id="Ellipse_22" data-name="Ellipse 22" cx="8.159" cy="8.159" r="8.159" transform="translate(45.231 30.042)" fill="#ffb8b8"/>
    <path id="Path_865" data-name="Path 865" d="M537.038,252.116l-.816,11.83,10.2,1.224s0-9.791.816-11.014S537.038,252.116,537.038,252.116Z" transform="translate(-489.97 -211.671)" fill="#ffb8b8"/>
    <path id="Path_866" data-name="Path 866" d="M533.894,283.282l-13.21-5.594s-6.31-4.869-10.012-1.269l-1.662,2.376s-10.122,5.442-10.122,9.929l1.148,22.706s-3.264,12.646,1.632,13.462l26.516,2.448a9.177,9.177,0,0,0,.408-10.2l1.224-13.462Z" transform="translate(-464.186 -227.54)" fill="#5a8"/>
    <path id="Path_867" data-name="Path 867" d="M583.033,301.973l8.975-.408s.658.694,2.7,8.445,4.645,20.519,4.645,20.519l13.039,16.518-6.339,6.34L589.033,334.7,586.7,315.843Z" transform="translate(-522.3 -245.823)" fill="#5a8"/>
    <path id="Path_868" data-name="Path 868" d="M521.04,435.579,491.71,433s-2.9,18.49-2.49,25.833.816,18.765.816,18.765l-3.263,49.769,12.646-1.632,1.632-41.2,5.3-22.437,6.119,28.556,4.079,36.715,11.014-1.224L523.9,481.677S527.159,441.7,521.04,435.579Z" transform="translate(-455.82 -336.595)" fill="#2f2e41"/>
    <path id="Path_869" data-name="Path 869" d="M592.51,727.483l3.672,1.224s7.751-2.04,5.711,3.263-7.751,4.487-7.751,4.487-6.935,5.3-9.791,1.224l1.632-8.567Z" transform="translate(-523.211 -539.976)" fill="#2f2e41"/>
    <path id="Path_870" data-name="Path 870" d="M496.25,727.483l3.672,1.224s7.751-2.04,5.711,3.263-7.751,4.487-7.751,4.487-6.935,5.3-9.791,1.224l1.632-8.567Z" transform="translate(-456.73 -539.976)" fill="#2f2e41"/>
    <path id="Path_871" data-name="Path 871" d="M526.849,228.079s-8.567-6.119-4.08-13.462c3.113-5.094,9.564-4.691,13.223-3.966a6.182,6.182,0,0,1,4.523,3.558c.612,1.428.612,2.856-1.836,2.856-4.9,0-2.448,3.671-2.448,3.671s-3.264.816-2.448,3.671S526.849,228.079,526.849,228.079Z" transform="translate(-479.782 -182.739)" fill="#2f2e41"/>
    <circle id="Ellipse_23" data-name="Ellipse 23" cx="1.001" cy="1.001" r="1.001" transform="translate(98.097 105.562)" fill="#fff"/>
    <path id="Path_872" data-name="Path 872" d="M681.463,458.466a1.326,1.326,0,0,0-.5-1.038,1.342,1.342,0,0,0-.838-.3c-.017,0-.03,0-.047,0a1.329,1.329,0,0,0-2.5-.224.989.989,0,0,0-1.265.3,11.533,11.533,0,0,1-2.863-.747,1.326,1.326,0,0,0-1.2.754,1.275,1.275,0,0,0-.137.581,1.315,1.315,0,0,0,.194.681,1,1,0,0,0-.861.988.96.96,0,0,0,.057.327l1.868.047a.89.89,0,0,0,.057-.19,1.368,1.368,0,0,0,.2.194l1.592.04.09-.07a.583.583,0,0,0,.05.073l2.152.05a.436.436,0,0,0,.037-.047.4.4,0,0,0,.027.05l1.732.04a.981.981,0,0,0,.134-.374.139.139,0,0,0,.03.017,1.067,1.067,0,0,0-.017.177,1.1,1.1,0,0,0,.017.183l1.959.047a1.048,1.048,0,0,0,.027-.23,1.006,1.006,0,0,0-.214-.614A1.326,1.326,0,0,0,681.463,458.466Zm-3.574-.027a1.015,1.015,0,0,1-.2.183c.02.05.03.1.047.154a.951.951,0,0,1,.3-.213,1.3,1.3,0,0,1-.147-.123Z" transform="translate(-583.365 -352.57)" fill="#fff"/>
    <circle id="Ellipse_24" data-name="Ellipse 24" cx="1.001" cy="1.001" r="1.001" transform="translate(107.106 105.895)" fill="#fff"/>
    <path id="Path_873" data-name="Path 873" d="M710.584,459.545a1.325,1.325,0,0,0-.5-1.038,1.341,1.341,0,0,0-.838-.3c-.017,0-.03,0-.047,0a1.329,1.329,0,0,0-2.5-.224.989.989,0,0,0-1.265.3,11.533,11.533,0,0,1-2.863-.747,1.326,1.326,0,0,0-1.2.754,1.272,1.272,0,0,0-.137.581,1.314,1.314,0,0,0,.193.681,1,1,0,0,0-.861.988.963.963,0,0,0,.057.327l1.868.047a.9.9,0,0,0,.057-.19,1.364,1.364,0,0,0,.2.193l1.592.04.09-.07a.577.577,0,0,0,.05.073l2.152.05a.454.454,0,0,0,.037-.047.342.342,0,0,0,.027.05l1.732.04a.984.984,0,0,0,.133-.374.136.136,0,0,0,.03.017,1.06,1.06,0,0,0-.017.177,1.1,1.1,0,0,0,.017.184l1.959.047a1.029,1.029,0,0,0,.027-.23,1,1,0,0,0-.214-.614A1.325,1.325,0,0,0,710.584,459.545Zm-3.573-.027a1.016,1.016,0,0,1-.2.184c.02.05.03.1.047.154a.953.953,0,0,1,.3-.214,1.3,1.3,0,0,1-.147-.124Z" transform="translate(-603.477 -353.316)" fill="#fff"/>
    <circle id="Ellipse_25" data-name="Ellipse 25" cx="0.751" cy="0.751" r="0.751" transform="translate(92.925 105.729)" fill="#fff"/>
    <path id="Path_874" data-name="Path 874" d="M670.332,460.039a1,1,0,0,0-.373-.778,1,1,0,0,0-.628-.223l-.035,0a1,1,0,0,0-1.874-.168.742.742,0,0,0-.948.225,8.655,8.655,0,0,1-2.147-.561.994.994,0,0,0-.9.566.954.954,0,0,0-.1.435.988.988,0,0,0,.145.51.75.75,0,0,0-.646.741.727.727,0,0,0,.043.245l1.4.035a.679.679,0,0,0,.043-.143,1.031,1.031,0,0,0,.15.145l1.194.03.068-.053a.422.422,0,0,0,.038.055l1.614.038a.359.359,0,0,0,.028-.035.255.255,0,0,0,.02.038l1.3.03a.737.737,0,0,0,.1-.28.1.1,0,0,0,.023.013.8.8,0,0,0-.013.133.84.84,0,0,0,.013.138l1.469.035a.783.783,0,0,0,.02-.173.755.755,0,0,0-.16-.46A.994.994,0,0,0,670.332,460.039Zm-2.68-.02a.763.763,0,0,1-.148.138c.015.038.023.078.035.115a.711.711,0,0,1,.223-.16,1,1,0,0,1-.11-.093Z" transform="translate(-577.407 -354.06)" fill="#fff"/>
    <circle id="Ellipse_26" data-name="Ellipse 26" cx="0.751" cy="0.751" r="0.751" transform="translate(82.248 105.729)" fill="#fff"/>
    <path id="Path_875" data-name="Path 875" d="M635.819,460.039a.994.994,0,0,0-.373-.778,1,1,0,0,0-.628-.223l-.035,0a1,1,0,0,0-1.874-.168.742.742,0,0,0-.948.225,8.655,8.655,0,0,1-2.147-.561.994.994,0,0,0-.9.566.953.953,0,0,0-.1.435.984.984,0,0,0,.145.51.75.75,0,0,0-.646.741.724.724,0,0,0,.043.245l1.4.035a.672.672,0,0,0,.042-.143,1.03,1.03,0,0,0,.15.145l1.194.03.068-.053a.426.426,0,0,0,.037.055l1.614.038a.334.334,0,0,0,.028-.035.28.28,0,0,0,.02.038l1.3.03a.734.734,0,0,0,.1-.28.105.105,0,0,0,.023.013.8.8,0,0,0-.013.133.821.821,0,0,0,.013.138l1.469.035a.745.745,0,0,0-.14-.633A.992.992,0,0,0,635.819,460.039Zm-2.68-.02a.768.768,0,0,1-.148.138c.015.038.022.078.035.115a.714.714,0,0,1,.223-.16.983.983,0,0,1-.11-.093Z" transform="translate(-553.571 -354.06)" fill="#fff"/>
    <path id="Path_876" data-name="Path 876" d="M761.548,428.407v-2H759.88v.334c-.184,0-.334.224-.334.5s.15.5.334.5v.667h-1.335v6.673h4.338v-6.673Z" transform="translate(-643.514 -332.041)" fill="#3f3d56"/>
  </g>
</svg>
