<svg xmlns="http://www.w3.org/2000/svg" width="90" height="90" viewBox="0 0 90 90">
  <g id="healthcare-and-medical" transform="translate(0.001 0)">
    <path id="Path_879" data-name="Path 879" d="M88.044,50.83a2.637,2.637,0,0,0-3.229,1.864l-.061.228-6.1-1.635a34.321,34.321,0,0,0,0-12.575l6.1-1.635.061.228a2.637,2.637,0,1,0,5.094-1.365l-1.487-5.549a2.637,2.637,0,0,0-5.094,1.365l.061.228-6.1,1.635a34.248,34.248,0,0,0-6.3-10.878l4.479-4.479.167.167A2.637,2.637,0,1,0,79.362,14.7L75.3,10.637a2.637,2.637,0,0,0-3.729,3.729l.167.167-4.479,4.479a34.248,34.248,0,0,0-10.879-6.3l1.635-6.1.228.061a2.637,2.637,0,0,0,1.365-5.094L54.059.091a2.637,2.637,0,0,0-1.365,5.094l.228.061-1.635,6.1a34.323,34.323,0,0,0-12.575,0l-1.635-6.1.228-.061A2.637,2.637,0,0,0,35.94.09L30.391,1.577a2.637,2.637,0,1,0,1.365,5.094l.228-.061,1.635,6.1a34.251,34.251,0,0,0-10.879,6.3l-4.479-4.479.167-.167A2.637,2.637,0,1,0,14.7,10.637L10.637,14.7a2.637,2.637,0,0,0,3.729,3.729l.167-.167,4.479,4.479a34.252,34.252,0,0,0-6.3,10.878l-6.1-1.635.061-.228A2.637,2.637,0,0,0,1.577,30.39L.09,35.94a2.637,2.637,0,1,0,5.094,1.365l.061-.228,6.1,1.635a34.321,34.321,0,0,0,0,12.575l-6.1,1.635-.061-.228A2.637,2.637,0,1,0,.09,54.059l1.487,5.549A2.637,2.637,0,0,0,6.67,58.243l-.061-.228,6.1-1.635a34.251,34.251,0,0,0,6.3,10.879l-4.479,4.479-.167-.167A2.637,2.637,0,1,0,10.636,75.3L14.7,79.363a2.637,2.637,0,0,0,3.729-3.729l-.167-.167,4.479-4.479a34.248,34.248,0,0,0,10.879,6.3l-1.635,6.1-.228-.061a2.637,2.637,0,1,0-1.365,5.094l5.549,1.487A2.637,2.637,0,1,0,37.3,84.816l-.228-.061,1.635-6.1a34.323,34.323,0,0,0,12.575,0l1.635,6.1-.228.061a2.637,2.637,0,1,0,1.365,5.094l5.549-1.487a2.637,2.637,0,1,0-1.365-5.094l-.228.061-1.635-6.1a34.251,34.251,0,0,0,10.879-6.3l4.479,4.479-.167.167A2.637,2.637,0,0,0,75.3,79.363L79.362,75.3a2.637,2.637,0,0,0-3.729-3.729l-.167.167-4.479-4.479a34.247,34.247,0,0,0,6.3-10.879l6.1,1.635-.061.228a2.637,2.637,0,0,0,5.094,1.365l1.487-5.549a2.636,2.636,0,0,0-1.863-3.229ZM45,73.961A28.961,28.961,0,1,1,73.96,45,28.994,28.994,0,0,1,45,73.961Z" transform="translate(0 0)" fill="#fff"/>
    <circle id="Ellipse_27" data-name="Ellipse 27" cx="2.626" cy="2.626" r="2.626" transform="translate(42.373 22.599)" fill="#fff"/>
    <circle id="Ellipse_28" data-name="Ellipse 28" cx="2.626" cy="2.626" r="2.626" transform="translate(42.373 62.149)" fill="#fff"/>
    <circle id="Ellipse_29" data-name="Ellipse 29" cx="2.626" cy="2.626" r="2.626" transform="translate(36.724 48.024)" fill="#fff"/>
    <circle id="Ellipse_30" data-name="Ellipse 30" cx="2.626" cy="2.626" r="2.626" transform="translate(48.023 48.024)" fill="#fff"/>
    <circle id="Ellipse_31" data-name="Ellipse 31" cx="2.626" cy="2.626" r="2.626" transform="translate(48.023 36.724)" fill="#fff"/>
    <circle id="Ellipse_32" data-name="Ellipse 32" cx="2.626" cy="2.626" r="2.626" transform="translate(36.724 36.724)" fill="#fff"/>
    <circle id="Ellipse_33" data-name="Ellipse 33" cx="2.626" cy="2.626" r="2.626" transform="translate(62.148 42.374)" fill="#fff"/>
    <circle id="Ellipse_34" data-name="Ellipse 34" cx="2.626" cy="2.626" r="2.626" transform="translate(22.599 42.374)" fill="#fff"/>
    <circle id="Ellipse_35" data-name="Ellipse 35" cx="2.626" cy="2.626" r="2.626" transform="translate(56.356 28.392)" fill="#fff"/>
    <circle id="Ellipse_36" data-name="Ellipse 36" cx="2.626" cy="2.626" r="2.626" transform="translate(28.391 56.357)" fill="#fff"/>
    <circle id="Ellipse_37" data-name="Ellipse 37" cx="2.626" cy="2.626" r="2.626" transform="translate(56.356 56.357)" fill="#fff"/>
    <circle id="Ellipse_38" data-name="Ellipse 38" cx="2.626" cy="2.626" r="2.626" transform="translate(28.391 28.392)" fill="#fff"/>
  </g>
</svg>
