<svg xmlns="http://www.w3.org/2000/svg" width="32.689" height="33.24" viewBox="0 0 32.689 33.24">
  <g id="corona_virus_covid_19_coronavirus_virus_1994361" data-name="corona virus,covid 19,coronavirus,virus,1994361" transform="translate(-5.152 -5.155)">
    <path id="Path_1246" data-name="Path 1246" d="M14.852,19.827l-.6-.13a11.008,11.008,0,0,1,1.077-2.9l.54.293A10.4,10.4,0,0,0,14.852,19.827Zm-.707,4.029a11.226,11.226,0,0,1-.068-3.119l.61.073a10.584,10.584,0,0,0,.065,2.947Zm2.006,4.754a10.967,10.967,0,0,1-1.778-3.693l.594-.159a10.366,10.366,0,0,0,1.678,3.487Zm3.581,3.139A11.059,11.059,0,0,1,16.788,29.4l.46-.408a10.453,10.453,0,0,0,2.782,2.223Zm5.328,1.366a11,11,0,0,1-4.179-.817l.232-.569A10.457,10.457,0,0,0,33.03,28.809l.469.4A11.046,11.046,0,0,1,25.061,33.115Zm9.2-4.918-.511-.342a10.463,10.463,0,0,0,.771-10.24l.556-.262A11.078,11.078,0,0,1,34.261,28.2Zm-.4-11.767a10.457,10.457,0,0,0-2.771-2.905l.355-.5A11.06,11.06,0,0,1,34.383,16.1Zm-3.729-3.509a10.41,10.41,0,0,0-2.371-.96l.159-.594a11.028,11.028,0,0,1,2.511,1.016ZM22.615,11.9l-.143-.6a11.214,11.214,0,0,1,4.367-.163l-.1.607A10.6,10.6,0,0,0,22.615,11.9ZM19.092,13.48l-.351-.5A11.036,11.036,0,0,1,21.454,11.6l.2.581A10.421,10.421,0,0,0,19.092,13.48ZM16.479,16.1l-.5-.351a11.129,11.129,0,0,1,1.815-2.025l.4.463A10.507,10.507,0,0,0,16.479,16.1Zm9.5,12.718a1.536,1.536,0,1,1,1.536-1.536A1.538,1.538,0,0,1,25.983,28.814Zm0-2.458a.922.922,0,1,0,.922.922A.923.923,0,0,0,25.983,26.356Zm-5.53-8.3a1.536,1.536,0,1,1,1.536-1.536A1.538,1.538,0,0,1,20.452,18.06Zm0-2.458a.922.922,0,1,0,.922.922A.923.923,0,0,0,20.452,15.6Zm0,9.525a1.536,1.536,0,1,1,1.536-1.536A1.538,1.538,0,0,1,20.452,25.127Zm0-2.458a.922.922,0,1,0,.922.922A.923.923,0,0,0,20.452,22.669Zm8.6-3.687a1.536,1.536,0,1,1,1.536-1.536A1.538,1.538,0,0,1,29.055,18.982Zm0-2.458a.922.922,0,1,0,.922.922A.923.923,0,0,0,29.055,16.524Zm.922,8.6a1.843,1.843,0,1,1,1.843-1.843A1.846,1.846,0,0,1,29.977,25.127Zm0-3.072a1.229,1.229,0,1,0,1.229,1.229A1.23,1.23,0,0,0,29.977,22.054Zm-4.916,0A1.843,1.843,0,1,1,26.9,20.211,1.846,1.846,0,0,1,25.061,22.054Zm0-3.072a1.229,1.229,0,1,0,1.229,1.229A1.23,1.23,0,0,0,25.061,18.982ZM20.337,9.888a1.843,1.843,0,0,1-.54-3.606,1.859,1.859,0,0,1,.54-.081,1.843,1.843,0,0,1,0,3.687Zm0-3.072A1.229,1.229,0,0,0,19.163,8.4a1.24,1.24,0,0,0,1.534.815,1.229,1.229,0,0,0-.359-2.4Z" transform="translate(-3.411 -0.403)" fill="#fff"/>
    <rect id="Rectangle_457" data-name="Rectangle 457" width="5.003" height="0.614" transform="translate(17.58 8.725) rotate(72.853)" fill="#fff"/>
    <path id="Path_1247" data-name="Path 1247" d="M33.222,57.321a1.537,1.537,0,0,1-.4-3.021,1.558,1.558,0,0,1,1.882,1.086,1.538,1.538,0,0,1-1.485,1.934Zm0-2.459a.938.938,0,0,0-.24.032.923.923,0,0,0-.652,1.129.934.934,0,0,0,1.129.652.922.922,0,0,0-.237-1.813Z" transform="translate(-10.229 -18.926)" fill="#fff"/>
    <rect id="Rectangle_458" data-name="Rectangle 458" width="5.203" height="0.614" transform="translate(22.57 30.459) rotate(85.48)" fill="#fff"/>
    <path id="Path_1248" data-name="Path 1248" d="M37.561,8.226a1.538,1.538,0,0,1-1.485-1.934A1.559,1.559,0,0,1,37.958,5.2a1.537,1.537,0,0,1-.4,3.021Zm0-2.459a.922.922,0,0,0-.238,1.812.935.935,0,0,0,1.129-.652.922.922,0,0,0-.891-1.16Z" transform="translate(-11.901 0)" fill="#fff"/>
    <rect id="Rectangle_459" data-name="Rectangle 459" width="0.614" height="6.272" transform="translate(25.044 7.797) rotate(14.999)" fill="#fff"/>
    <path id="Path_1249" data-name="Path 1249" d="M21.841,54.974a1.537,1.537,0,0,1-1.414-2.137,1.566,1.566,0,0,1,2.014-.814,1.537,1.537,0,0,1-.6,2.951Zm0-2.459a.922.922,0,0,0-.36,1.771.937.937,0,0,0,1.208-.489.924.924,0,0,0-.848-1.282Z" transform="translate(-5.842 -18.023)" fill="#fff"/>
    <rect id="Rectangle_460" data-name="Rectangle 460" width="0.614" height="6.272" transform="translate(18.646 28.389) rotate(22.986)" fill="#fff"/>
    <path id="Path_1250" data-name="Path 1250" d="M45.454,13.006a1.536,1.536,0,0,1-1.086-2.623,1.573,1.573,0,0,1,2.172,0,1.536,1.536,0,0,1-1.086,2.623Zm0-2.458a.922.922,0,0,0-.652,1.574.944.944,0,0,0,1.3,0,.922.922,0,0,0-.651-1.574Z" transform="translate(-14.945 -1.848)" fill="#fff"/>
    <rect id="Rectangle_461" data-name="Rectangle 461" width="0.614" height="3.28" transform="translate(29.395 10.307) rotate(36.984)" fill="#fff"/>
    <path id="Path_1251" data-name="Path 1251" d="M11.229,50a1.844,1.844,0,0,1-1.3-3.147,1.888,1.888,0,0,1,2.607,0A1.844,1.844,0,0,1,11.229,50Zm0-3.072a1.229,1.229,0,0,0-.869,2.1,1.258,1.258,0,0,0,1.738,0,1.229,1.229,0,0,0-.87-2.1Z" transform="translate(-1.633 -15.873)" fill="#fff"/>
    <rect id="Rectangle_462" data-name="Rectangle 462" width="0.614" height="4.393" transform="translate(13.744 28.475) rotate(52.099)" fill="#fff"/>
    <path id="Path_1252" data-name="Path 1252" d="M54.191,22.189a1.843,1.843,0,0,1-.477-3.624,1.869,1.869,0,0,1,2.257,1.3,1.844,1.844,0,0,1-1.78,2.32Zm0-3.072A1.229,1.229,0,0,0,53,20.664a1.246,1.246,0,0,0,1.5.869,1.229,1.229,0,0,0-.317-2.416Z" transform="translate(-18.194 -5.147)" fill="#fff"/>
    <rect id="Rectangle_463" data-name="Rectangle 463" width="0.614" height="7.024" transform="translate(34.686 15.236) rotate(66.039)" fill="#fff"/>
    <path id="Path_1253" data-name="Path 1253" d="M6.688,39.1a1.537,1.537,0,0,1-.4-3.021,1.558,1.558,0,0,1,1.882,1.086,1.538,1.538,0,0,1-1.086,1.882A1.512,1.512,0,0,1,6.688,39.1Zm0-2.458a.922.922,0,1,0,.89.683A.932.932,0,0,0,6.689,36.639Z" transform="translate(0 -11.901)" fill="#fff"/>
    <rect id="Rectangle_464" data-name="Rectangle 464" width="0.614" height="6.272" transform="translate(13.855 23.421) rotate(75.001)" fill="#fff"/>
    <path id="Path_1254" data-name="Path 1254" d="M54.885,40.6a1.561,1.561,0,0,1-.4-.052A1.538,1.538,0,0,1,53.4,38.664a1.558,1.558,0,0,1,1.882-1.086,1.536,1.536,0,0,1-.4,3.02Zm0-2.458a.922.922,0,0,0-.238,1.812.932.932,0,0,0,1.129-.652.922.922,0,0,0-.652-1.129A.928.928,0,0,0,54.883,38.14Z" transform="translate(-18.58 -12.48)" fill="#fff"/>
    <rect id="Rectangle_465" data-name="Rectangle 465" width="3.505" height="0.614" transform="matrix(0.965, 0.264, -0.264, 0.965, 31.818, 25.042)" fill="#fff"/>
    <path id="Path_1255" data-name="Path 1255" d="M8.933,29.574a1.56,1.56,0,0,1-.4-.052A1.538,1.538,0,0,1,7.448,27.64,1.559,1.559,0,0,1,9.33,26.554a1.536,1.536,0,0,1-.4,3.02Zm0-2.458a.922.922,0,0,0-.238,1.812.935.935,0,0,0,1.129-.652.922.922,0,0,0-.891-1.16Z" transform="translate(-0.865 -8.23)" fill="#fff"/>
    <rect id="Rectangle_466" data-name="Rectangle 466" width="2.055" height="0.614" transform="translate(9.299 19.822) rotate(8.297)" fill="#fff"/>
    <path id="Path_1256" data-name="Path 1256" d="M6.933,20.574a1.56,1.56,0,0,1-.4-.052A1.538,1.538,0,0,1,5.448,18.64,1.558,1.558,0,0,1,7.33,17.553a1.536,1.536,0,0,1-.4,3.02Zm0-2.458a.922.922,0,0,0-.238,1.812.935.935,0,0,0,1.129-.652.922.922,0,0,0-.891-1.16Z" transform="translate(-0.094 -4.76)" fill="#fff"/>
    <rect id="Rectangle_467" data-name="Rectangle 467" width="6.519" height="0.614" transform="translate(8.156 14.316) rotate(24.994)" fill="#fff"/>
    <path id="Path_1257" data-name="Path 1257" d="M50.428,48.886a1.536,1.536,0,0,1-1.162-2.54,1.581,1.581,0,0,1,2.167-.158,1.536,1.536,0,0,1-1,2.7Zm0-2.458a.922.922,0,0,0-.6,1.62.949.949,0,0,0,1.3-.095.922.922,0,0,0-.7-1.525Z" transform="translate(-16.862 -15.681)" fill="#fff"/>
    <rect id="Rectangle_468" data-name="Rectangle 468" width="5.842" height="0.614" transform="translate(28.297 26.943) rotate(39.086)" fill="#fff"/>
    <path id="Path_1258" data-name="Path 1258" d="M14.214,13.78a1.536,1.536,0,0,1-1.086-2.623,1.573,1.573,0,0,1,2.172,0,1.536,1.536,0,0,1-1.086,2.623Zm0-2.458a.922.922,0,0,0-.652,1.574.944.944,0,0,0,1.3,0,.922.922,0,0,0-.651-1.574Z" transform="translate(-2.901 -2.146)" fill="#fff"/>
    <rect id="Rectangle_469" data-name="Rectangle 469" width="3.826" height="0.614" transform="translate(12.409 10.759) rotate(47.724)" fill="#fff"/>
    <rect id="Rectangle_470" data-name="Rectangle 470" width="0.614" height="0.614" transform="translate(27.795 14.892)" fill="#fff"/>
    <rect id="Rectangle_471" data-name="Rectangle 471" width="0.614" height="0.614" transform="translate(19.806 23.495)" fill="#fff"/>
    <rect id="Rectangle_472" data-name="Rectangle 472" width="0.614" height="0.614" transform="translate(16.734 28.41)" fill="#fff"/>
    <rect id="Rectangle_473" data-name="Rectangle 473" width="0.614" height="0.614" transform="translate(14.89 26.567)" fill="#fff"/>
    <rect id="Rectangle_474" data-name="Rectangle 474" width="0.614" height="0.614" transform="translate(16.734 25.952)" fill="#fff"/>
    <rect id="Rectangle_475" data-name="Rectangle 475" width="0.614" height="0.614" transform="translate(25.337 28.41)" fill="#fff"/>
    <rect id="Rectangle_476" data-name="Rectangle 476" width="0.614" height="0.614" transform="translate(25.951 26.567)" fill="#fff"/>
    <rect id="Rectangle_477" data-name="Rectangle 477" width="0.614" height="0.614" transform="translate(30.253 22.88)" fill="#fff"/>
    <rect id="Rectangle_478" data-name="Rectangle 478" width="0.614" height="0.614" transform="translate(29.638 20.422)" fill="#fff"/>
    <rect id="Rectangle_479" data-name="Rectangle 479" width="0.614" height="0.614" transform="translate(19.806 16.121)" fill="#fff"/>
    <rect id="Rectangle_480" data-name="Rectangle 480" width="0.614" height="0.614" transform="translate(21.65 14.892)" fill="#fff"/>
    <rect id="Rectangle_481" data-name="Rectangle 481" width="0.614" height="0.614" transform="translate(21.035 13.663)" fill="#fff"/>
    <rect id="Rectangle_482" data-name="Rectangle 482" width="0.614" height="0.614" transform="translate(22.264 22.88)" fill="#fff"/>
    <rect id="Rectangle_483" data-name="Rectangle 483" width="0.614" height="0.614" transform="translate(13.047 20.422)" fill="#fff"/>
    <rect id="Rectangle_484" data-name="Rectangle 484" width="0.614" height="0.614" transform="translate(14.89 18.579)" fill="#fff"/>
    <g id="Group_378" data-name="Group 378" transform="translate(26.301 31.058)">
      <path id="Path_1259" data-name="Path 1259" d="M42.036,53.2a1.537,1.537,0,0,1-.4-3.021,1.558,1.558,0,0,1,1.882,1.086A1.538,1.538,0,0,1,42.036,53.2Zm0-2.459a.938.938,0,0,0-.24.032.923.923,0,0,0-.652,1.129.935.935,0,0,0,1.129.652.922.922,0,0,0-.237-1.813Z" transform="translate(-39.928 -48.394)" fill="#fff"/>
      <rect id="Rectangle_485" data-name="Rectangle 485" width="2.389" height="0.614" transform="translate(0.527 0) rotate(59.023)" fill="#fff"/>
    </g>
    <g id="Group_379" data-name="Group 379" transform="translate(32.314 19.623)">
      <path id="Path_1260" data-name="Path 1260" d="M53.148,31.772a1.536,1.536,0,0,1-.077-3.071l.079,0a1.536,1.536,0,0,1,.077,3.071Zm0-2.458a.939.939,0,0,0-.685.3.921.921,0,0,0,.683,1.539H53.2a.922.922,0,0,0-.045-1.842Z" transform="translate(-50.225 -28.7)" fill="#fff"/>
      <rect id="Rectangle_486" data-name="Rectangle 486" width="1.686" height="0.614" transform="translate(0.021 1.234) rotate(1.985)" fill="#fff"/>
    </g>
  </g>
</svg>
